<svg version="1.1" xmlns="http://www.w3.org/2000/svg" viewBox="0 0 696.9535522460938 469.55724029254264" width="696.9535522460938" height="469.55724029254264">
  <!-- svg-source:excalidraw -->
  
  <defs>
    <style>
      @font-face {
        font-family: "Virgil";
        src: url("https://excalidraw.com/Virgil.woff2");
      }
      @font-face {
        font-family: "Cascadia";
        src: url("https://excalidraw.com/Cascadia.woff2");
      }
    </style>
  </defs>
  <g stroke-linecap="round" transform="translate(10 66.5361831636364) rotate(0 117.80789184570312 80.244873046875)"><path d="M0.23 0.6 C48.98 -2.7, 96.19 -1.23, 235.19 1.39 M-0.62 0.14 C66.12 -2.3, 132.49 -1.7, 235.07 0.63 M237.49 -0.6 C238.28 33.55, 235.74 67.14, 236.43 160.53 M235.64 0.06 C235.72 36.15, 235.79 73.83, 235.82 159.79 M234.98 161.62 C163.32 160.51, 89.96 161.51, 0.24 160.02 M235.78 160.56 C180.03 159.87, 123.87 159.39, -0.61 160.19 M-1.75 161.39 C1.75 118.13, -0.71 76.3, -1.89 -0.37 M-0.29 160.75 C1.08 119.95, 2.03 79.74, -0.04 0.5" stroke="#000000" stroke-width="1" fill="none"></path></g><g transform="translate(84.4267578125 31.253468319886395) rotate(0 28 12.5)"><text x="0" y="18" font-family="Virgil, Segoe UI Emoji" font-size="20px" fill="#000000" text-anchor="start" style="white-space: pre;" direction="ltr">Azure</text></g><g stroke-linecap="round" transform="translate(209.780517578125 131.8463638276989) rotate(0 30.5 17.5)"><path d="M0.25 0.32 L61.85 1.27 L61.28 36.79 L1.18 34.91" stroke="none" stroke-width="0" fill="#ced4da"></path><path d="M-1.82 -0.65 C20.32 -1.58, 40.06 1.13, 60.62 0.97 M0.31 -0.93 C21.06 1.35, 40.37 -0.04, 61.7 -0.41 M60.95 -0.27 C62.08 11.98, 61.35 20.97, 61.3 34.56 M60.1 0.92 C60.33 12.11, 61.36 23.95, 60.07 34.8 M61.51 34.63 C37.89 35.05, 18.15 36.14, 1.12 33.21 M60.99 35.13 C35.85 34.61, 13.26 34.58, 0.51 35.03 M1.3 36.55 C-1.38 24.53, 0.58 17.28, -0.61 -0.68 M-0.27 35.04 C-0.08 25.83, -0.44 14, 0.43 -0.94" stroke="#000000" stroke-width="1" fill="none"></path></g><g transform="translate(214.780517578125 136.8463638276989) rotate(0 25.5 12.5)"><text x="25.5" y="18" font-family="Virgil, Segoe UI Emoji" font-size="20px" fill="#000000" text-anchor="middle" style="white-space: pre;" direction="ltr">VPN</text></g><g stroke-linecap="round" transform="translate(381.74212646484375 64.9072769136364) rotate(0 152.605712890625 82.8216552734375)"><path d="M0.95 -1.31 C79.85 -1.75, 159.14 -0.68, 305.21 -1.32 M-0.44 -0.15 C71.9 -1.83, 142.39 -1.24, 305.03 0.69 M304.3 -1.43 C306.38 41.66, 305.98 86.04, 305.64 163.79 M304.44 -0.47 C304.25 34.66, 303.83 69.57, 304.83 164.89 M304.53 165.85 C227.34 168.75, 147.53 167.38, -0.08 166.25 M305.36 165.08 C240.1 165.75, 176.12 164.98, 0.19 165.05 M0.16 165.2 C0.52 108.14, 0.58 51.95, 0.71 -0.67 M-0.44 166.6 C1 101.81, 0.35 36.88, 0.62 -0.97" stroke="#000000" stroke-width="1" fill="none"></path></g><g transform="translate(445.56341552734375 26.939137265198895) rotate(0 63.5 12.5)"><text x="0" y="18" font-family="Virgil, Segoe UI Emoji" font-size="20px" fill="#000000" text-anchor="start" style="white-space: pre;" direction="ltr">Google Cloud</text></g><g stroke-linecap="round"><g transform="translate(486.7551032559711 390.71019660669634) rotate(0 0.7550439313116044 -73.60219388217433)"><path d="M-0.25 -0.24 C-0.26 -24.55, -0.68 -122.55, -0.39 -146.97 M1.82 -1.41 C2.2 -25.52, 1.89 -121.89, 1.77 -145.97" stroke="#000000" stroke-width="1" fill="none"></path></g><g transform="translate(486.7551032559711 390.71019660669634) rotate(0 0.7550439313116044 -73.60219388217433)"><path d="M11.74 -119.55 C7.84 -124.19, 5.35 -134.79, 0.77 -146.55 M12.26 -118.07 C10.32 -126.03, 5.93 -131.74, 2.14 -145.2" stroke="#000000" stroke-width="1" fill="none"></path></g><g transform="translate(486.7551032559711 390.71019660669634) rotate(0 0.7550439313116044 -73.60219388217433)"><path d="M-8.78 -119.48 C-7.06 -124.09, -3.93 -134.71, 0.77 -146.55 M-8.26 -118 C-4.82 -126.01, -3.82 -131.73, 2.14 -145.2" stroke="#000000" stroke-width="1" fill="none"></path></g></g><g transform="translate(505.10076904296875 286.8837173433239) rotate(0 55 12.5)"><text x="0" y="18" font-family="Virgil, Segoe UI Emoji" font-size="20px" fill="#000000" text-anchor="start" style="white-space: pre;" direction="ltr">Cloud Build</text></g><g stroke-linecap="round" transform="translate(334.22705078125 133.8723648042614) rotate(0 30.5 17.5)"><path d="M0.48 -0.49 L60.36 -0.36 L61.31 33.02 L-1.79 35.21" stroke="none" stroke-width="0" fill="#ced4da"></path><path d="M-1.56 -0.75 C21.13 -1.9, 41 1.2, 60.18 -0.94 M0.49 -0.44 C14.54 -0.14, 30.7 -0.75, 60.58 0.24 M61.92 1.96 C61.6 8.88, 61.47 17.23, 62.6 34.68 M61.4 0.24 C61.34 8.84, 61.36 18.55, 60.6 35.22 M61.8 33.04 C35.15 35.05, 12.23 35.22, 1.11 36.71 M60.5 35.82 C48.55 35.9, 34.18 35.72, -0.72 35.2 M-1.89 35.11 C-0.09 21.17, 0.28 10.54, 0.13 -0.37 M0.76 35.95 C0.77 24.27, -0.72 12.14, -0.23 -0.47" stroke="#000000" stroke-width="1" fill="none"></path></g><g transform="translate(339.22705078125 138.8723648042614) rotate(0 25.5 12.5)"><text x="25.5" y="18" font-family="Virgil, Segoe UI Emoji" font-size="20px" fill="#000000" text-anchor="middle" style="white-space: pre;" direction="ltr">VPN</text></g><g stroke-linecap="round"><g transform="translate(277.27313232421875 146.3893325776989) rotate(0 25.045201482255948 0.1456608837458191)"><path d="M0.44 -0.89 C8.87 -1.13, 42.47 -0.81, 50.88 -0.54 M-0.79 1.26 C7.46 1.1, 41.48 1.12, 49.98 0.72" stroke="#000000" stroke-width="1" fill="none"></path></g><g transform="translate(277.27313232421875 146.3893325776989) rotate(0 25.045201482255948 0.1456608837458191)"><path d="M24.81 10.03 C33.07 7.01, 42.99 5.18, 48.24 -0.67 M25.68 10.6 C32.07 7.56, 38.05 6.1, 49.43 1.54" stroke="#000000" stroke-width="1" fill="none"></path></g><g transform="translate(277.27313232421875 146.3893325776989) rotate(0 25.045201482255948 0.1456608837458191)"><path d="M24.46 -7.34 C32.97 -4.68, 43 -0.83, 48.24 -0.67 M25.33 -6.76 C31.89 -5.43, 37.96 -2.52, 49.43 1.54" stroke="#000000" stroke-width="1" fill="none"></path></g></g><g stroke-linecap="round" transform="translate(361.52496337890625 403.5325210542614) rotate(0 124.489501953125 28.012359619140625)"><path d="M84.26 1.68 C98.08 0.16, 117.67 0.41, 133.71 0.65 C149.76 0.89, 166.47 1.51, 180.52 3.11 C194.57 4.7, 207.66 7.48, 218.03 10.23 C228.41 12.98, 237.51 16.45, 242.76 19.61 C248 22.77, 250.6 25.58, 249.5 29.18 C248.41 32.77, 243.4 37.68, 236.18 41.17 C228.95 44.66, 218.15 47.84, 206.18 50.12 C194.21 52.4, 179.29 53.8, 164.36 54.86 C149.42 55.91, 132.47 56.92, 116.58 56.46 C100.69 56.01, 83.23 53.72, 68.99 52.15 C54.75 50.57, 41.45 49.41, 31.15 47.01 C20.85 44.61, 12.19 41.22, 7.2 37.76 C2.21 34.3, 0.26 30.04, 1.21 26.27 C2.17 22.5, 5.82 18.32, 12.91 15.14 C19.99 11.96, 28.47 9.73, 43.73 7.18 C58.98 4.63, 91.17 0.94, 104.44 -0.16 C117.7 -1.25, 123.1 -0.03, 123.31 0.62 M146.53 0.08 C161.47 0.06, 178.78 1.46, 192.28 3.62 C205.78 5.78, 218.34 10.07, 227.52 13.05 C236.7 16.02, 244.23 18.26, 247.36 21.49 C250.5 24.71, 249.65 28.95, 246.32 32.39 C242.98 35.83, 235.82 38.76, 227.36 42.12 C218.9 45.49, 208.23 50.13, 195.55 52.58 C182.87 55.04, 167.03 56.49, 151.27 56.84 C135.52 57.19, 116.89 55.81, 101.03 54.67 C85.16 53.54, 69.25 52.07, 56.05 50.04 C42.85 48, 30.73 45.25, 21.82 42.46 C12.91 39.68, 5.68 36.56, 2.6 33.32 C-0.49 30.08, 0.45 26.21, 3.29 23.02 C6.12 19.83, 10.87 17.05, 19.6 14.16 C28.34 11.26, 42.27 7.69, 55.69 5.64 C69.12 3.58, 84.86 2.63, 100.16 1.8 C115.46 0.97, 139.66 0.52, 147.51 0.64 C155.35 0.76, 147.79 1.92, 147.25 2.52" stroke="#000000" stroke-width="1" fill="none"></path></g><g stroke-linecap="round"><g transform="translate(551.6335855254123 335.96250498261287) rotate(0 -0.23072273063223747 12.64580924352424)" fill-rule="evenodd"><path d="M1.66 -0.37 L9.85 -6.1 L11.12 18.84 L-13.04 33.76 L-13.33 21.58 L-0.33 11.96 L-0.99 -0.82" stroke="none" stroke-width="0" fill="#aecbfa" fill-rule="evenodd"></path><path d="M-1.17 1.22 C5.09 -1.26, 7.13 -5.24, 10.54 -7.63 M-0.32 -0.29 C3.21 -1.54, 7.42 -3.69, 10.43 -6.06 M11.6 -5.1 C10.45 2.74, 9.44 14.3, 9.74 18.79 M11.05 -7.17 C11.89 3.31, 10.68 11.07, 11.11 18.94 M10.12 21.37 C3.95 24.87, -1.59 25.03, -10.27 31.11 M10.88 19.93 C3.45 24.52, -4.21 28.3, -12.06 32.05 M-10.86 32.23 C-10.46 29.06, -12.12 27.28, -10.72 21.07 M-11.69 32.92 C-11.55 28.5, -12.01 25.16, -11.47 20.48 M-10.78 20.52 C-9.34 18.16, -5.42 16.85, -0.49 12.6 M-12 20.72 C-8.11 17.61, -3.97 15.67, 0.47 13.74 M0.07 12.28 C-0.75 10.11, 0.7 5.28, -0.48 -1.34 M-0.02 13.54 C0.4 9.84, -0.24 6.72, -0.34 0.39 M0 0 C0 0, 0 0, 0 0 M0 0 C0 0, 0 0, 0 0" stroke="#669df6" stroke-width="1" fill="none"></path></g></g><g stroke-linecap="round"><g transform="translate(544.4227258379645 333.74945687510825) rotate(0 -2.904333678614705 9.648090670009935)" fill-rule="evenodd"><path d="M-1.03 -0.67 L1.73 3.61 L2.73 13 L-7.46 19.56 L-8.78 17.08 L-1.86 -1.53" stroke="none" stroke-width="0" fill="#4285f4" fill-rule="evenodd"></path><path d="M0.37 0.34 C1.64 0.54, 2.42 1.52, 2.91 2.1 M-0.09 -0.09 C1.08 0.69, 1.97 1.03, 3.39 2.19 M4.09 1.77 C2.5 5.14, 3.1 9.34, 2.48 14.47 M2.86 2.57 C3.55 6.29, 2.68 11.12, 2.57 13.52 M3.95 13.02 C1.23 14.49, -3.29 17.91, -7.54 19.59 M3.15 13.75 C-0.22 15.49, -4.01 17.71, -7.02 19 M-6.73 19.68 C-7.5 18.81, -7.85 18.89, -9.72 17.68 M-6.52 19.39 C-7.69 18.65, -8.53 18.23, -9.9 17.43 M-9.61 16.78 C-7.34 12.38, -3.49 4.38, -1.52 0.76 M-9.33 16.8 C-7.37 11.49, -3.68 6.77, 0.17 -0.38 M0 0 C0 0, 0 0, 0 0 M0 0 C0 0, 0 0, 0 0" stroke="#1864ab" stroke-width="1" fill="none"></path></g></g><g stroke-linecap="round"><g transform="translate(531.6260387923467 330.30505250114805) rotate(58.80667395495051 3.052794185410278 10.079936375762713)" fill-rule="evenodd"><path d="M-0.67 -1.54 L-1.65 1.65 L-4 12.94 L6.68 20.55 L9.48 15.7 L-1.53 1.01" stroke="none" stroke-width="0" fill="#669df6" fill-rule="evenodd"></path><path d="M0.34 0.38 C-1.42 0.64, -2.36 1.09, -3.16 1.9 M-0.09 0.19 C-0.97 0.83, -2.26 1.45, -3.07 2.07 M-3.49 1.29 C-4 5.64, -3.73 8.78, -2.53 14.8 M-2.69 2.41 C-3.35 4.73, -2.94 7.75, -3.48 13.93 M-3.97 14.93 C-0.82 15.15, 4.28 16.59, 6.7 20.16 M-3.25 14.14 C-0.31 15.73, 3.09 17.04, 6.12 18.86 M6.8 19.07 C6.99 19.07, 8.17 18.88, 10.08 17.63 M6.5 19.29 C7.5 18.96, 8.8 18.24, 9.83 17.65 M9.18 16.81 C7.28 10.93, 1.82 3.48, 0.76 0.48 M9.2 16.85 C7.02 12.79, 5.39 8.6, -0.38 0.43 M0 0 C0 0, 0 0, 0 0 M0 0 C0 0, 0 0, 0 0" stroke="#1864ab" stroke-width="1" fill="none"></path></g></g><g stroke-linecap="round"><g transform="translate(524.2059598281206 335.7858109438312) rotate(0 0.5296986043707648 12.907899673849158)" fill-rule="evenodd"><path d="M0.39 0.33 L-11.69 -7.96 L-10.03 18.01 L12.85 32.55 L9.87 19.31 L-0.94 15.41 L0.07 -1.72" stroke="none" stroke-width="0" fill="#aecbfa" fill-rule="evenodd"></path><path d="M1.23 -0.85 C-2.61 -1.43, -5.64 -2.27, -11.06 -6.1 M0.61 0.41 C-2.05 -1.95, -4.86 -2.67, -10.51 -6.43 M-11.93 -7.92 C-10.66 1.49, -11.6 12.52, -9.3 19.07 M-10.05 -6.78 C-11.61 2.57, -11.81 10.35, -10.76 20.29 M-8.93 17.91 C-5.79 24.81, -0.66 27.41, 12.99 33.73 M-10.37 18.99 C-3.88 23.47, 2.09 27.36, 10.64 32.09 M10.57 32.32 C11.81 29.29, 12.39 24.36, 11.77 20.68 M11.29 32.56 C12.17 29.48, 11.75 25.43, 11.83 20.66 M11.03 20.96 C7.13 17.27, 2.21 16.02, 0.2 13.11 M11.06 19.99 C8.65 19.03, 6.25 16.89, 0.17 13.38 M-0.08 14.32 C-1.17 9.11, -1.25 5.26, -1.15 0.17 M-0.12 13.22 C0.6 9.48, 0.35 6.57, -0.35 -0.23 M0 0 C0 0, 0 0, 0 0 M0 0 C0 0, 0 0, 0 0" stroke="#669df6" stroke-width="1" fill="none"></path></g></g><g stroke-linecap="round"><g transform="translate(537.801866646191 313.17091346816625) rotate(119.12269566254741 -0.19551373958535123 13.207973739829185)" fill-rule="evenodd"><path d="M0.33 -0.97 L-12.19 -5.74 L-12.59 21.09 L11.11 31.35 L10.54 19.48 L1.66 13.7 L-1.72 1.79" stroke="none" stroke-width="0" fill="#aecbfa" fill-rule="evenodd"></path><path d="M-0.85 -0.32 C-4.5 -3.61, -8.26 -5.39, -10.34 -7.14 M0.41 0.58 C-2.98 -1.11, -4.8 -2.97, -10.66 -6.22 M-12.15 -6.59 C-11.85 2.21, -9.88 14.44, -11.53 20.46 M-11.01 -7.18 C-10.17 -1.25, -11.16 5.76, -10.31 19.48 M-12.69 18.74 C-1.13 22.69, 6.4 31, 12.3 33.19 M-11.61 19.79 C-4.34 22.87, 2.44 27.01, 10.65 33.57 M10.88 33.18 C12.27 30.74, 11.86 27.17, 11.91 20.07 M11.13 33.6 C11.61 29.56, 11.13 26.04, 11.9 20.65 M12.19 20.05 C7.25 17.12, 4.68 16.35, -0.64 12.68 M11.22 20.14 C7.7 17.91, 2.87 15.67, -0.37 13.6 M0.57 12.41 C-0.5 9.55, -0.29 6.99, 0.17 -0.29 M-0.53 14.3 C-0.47 10.1, 0.45 5.45, -0.23 -0.52 M0 0 C0 0, 0 0, 0 0 M0 0 C0 0, 0 0, 0 0" stroke="#669df6" stroke-width="1" fill="none"></path></g></g><g stroke-linecap="round"><g transform="translate(475.48545289619733 152.67951316980088) rotate(0 0.9075993897181434 -14.297811625539055)" fill-rule="evenodd"><path d="M0.5 -0.52 L10.52 1.05 L1.7 -23.1 L-8.9 -27.98 L1.32 0.56" stroke="none" stroke-width="0" fill="#aecbfa" fill-rule="evenodd"></path><path d="M-0.09 0.11 C3.87 0.65, 6.25 -0.91, 8.37 -0.28 M0.09 0.01 C2.53 -0.3, 5.81 0.32, 9.19 -0.49 M7.55 -0.27 C9.18 -6.78, 5.61 -11.94, 2.64 -24.28 M8.3 0.95 C7.56 -6.22, 5.72 -14.58, 2.67 -24.44 M1.36 -22.75 C0.08 -24.94, -1.63 -26.25, -6.28 -28.34 M1.9 -23.32 C-0.64 -25.49, -2.78 -25.98, -7.38 -27.98 M-7.06 -30.1 C-3.73 -17.6, -0.54 -6.86, -1.65 1.5 M-6.05 -27.88 C-4.65 -19.59, -3.35 -8.96, -0.16 0.4 M0 0 C0 0, 0 0, 0 0 M0 0 C0 0, 0 0, 0 0" stroke="#669df6" stroke-width="1" fill="none"></path></g></g><g stroke-linecap="round"><g transform="translate(494.09219205731677 152.5870387326102) rotate(0 9.432217495310454 -13.251404330640042)" fill-rule="evenodd"><path d="M-1.5 0.62 L29.24 -0.88 L-9.46 -27.71 L-1.91 -0.47" stroke="none" stroke-width="0" fill="#aecbfa" fill-rule="evenodd"></path><path d="M0.25 1.79 C11.27 0.29, 17.54 -1.68, 27.54 -0.12 M0.01 -0.44 C8.06 0.69, 17.99 0.05, 27.09 -0.2 M27.84 1.82 C18.38 -7.17, 10.35 -14.31, -10.04 -27.45 M29.06 0.13 C21.17 -5.6, 12.19 -11.31, -10.2 -28.33 M-7.65 -28.03 C-6.86 -18.7, -4.46 -8.48, -0.15 -0.88 M-8.76 -28.14 C-7.87 -19.85, -3.8 -13.71, 0.55 0.1 M-0.04 -0.54 C0.02 -0.37, 0.03 -0.31, 0.04 0.02 M0.02 -0.55 C-0.01 -0.46, 0.03 -0.31, 0.01 0" stroke="#669df6" stroke-width="1" fill="none"></path></g></g><g stroke-linecap="round"><g transform="translate(512.2397273990894 180.51100288492245) rotate(180 -9.375050371307282 -13.863433563179228)" fill-rule="evenodd"><path d="M0.62 1.17 L-28.85 -0.13 L9.15 -29.35 L0.08 -2.39" stroke="none" stroke-width="0" fill="#4285f4" fill-rule="evenodd"></path><path d="M1.79 1.6 C-10.13 -1.81, -22.5 -0.58, -28.09 -0.03 M-0.44 -0.47 C-10 0.9, -21.4 -1.06, -28.17 -0.51 M-26.14 0.01 C-15.32 -7.14, -3.15 -18.46, 9.42 -29.33 M-27.83 0.76 C-14.98 -9.98, -2.64 -19.39, 8.54 -27.17 M8.84 -28.16 C5.38 -18.27, 3.17 -6.54, -0.33 -1.21 M8.73 -28.42 C6.56 -18.45, 2.58 -10.12, 0.65 -0.88 M0.01 -0.55 C0.03 -0.34, -0.05 -0.11, 0.02 -0.04 M0 -0.58 C-0.02 -0.34, 0 -0.15, 0 -0.02" stroke="#1864ab" stroke-width="1" fill="none"></path></g></g><g stroke-linecap="round"><g transform="translate(477.010566197769 181.2216925814484) rotate(180 -0.9695161590083217 -13.902054110555639)" fill-rule="evenodd"><path d="M1.09 -0.68 L-8.54 -1.95 L-2.1 -22.36 L7.55 -27.44 L-0.71 1.13" stroke="none" stroke-width="0" fill="#4285f4" fill-rule="evenodd"></path><path d="M0.73 0.14 C-3.47 -0.68, -5.53 0.05, -9.08 0.73 M-0.21 0.36 C-2.5 0.03, -6.29 -0.11, -9.3 0.07 M-9 0.27 C-5.77 -5.09, -6.69 -10.63, -4.28 -23.04 M-8.24 0.36 C-8.3 -4.95, -7.16 -11.32, -2.12 -22.78 M-2.76 -23.74 C-1.26 -23.87, 1.29 -25.67, 6.65 -28.14 M-2.89 -23.52 C-0.17 -24.95, 1.77 -25.17, 6.83 -27.94 M7.36 -26.83 C5.41 -21.5, 4.08 -10.86, -1.5 1.2 M6.39 -29.01 C5.07 -17.27, 1.99 -5.91, -0.75 0.31 M0 0 C0 0, 0 0, 0 0 M0 0 C0 0, 0 0, 0 0" stroke="#1864ab" stroke-width="1" fill="none"></path></g></g><g transform="translate(435.78497314453125 90.5010269136364) rotate(0 48.5 12.5)"><text x="0" y="18" font-family="Virgil, Segoe UI Emoji" font-size="20px" fill="#000000" text-anchor="start" style="white-space: pre;" direction="ltr">Cloud Run</text></g><g stroke-linecap="round"><g transform="translate(129.5743408203125 145.0006607026989) rotate(0 36.6843306452036 0.7096006040856366)"><path d="M0.32 1.06 C12.49 1.06, 60.78 0.47, 73.05 0.36" stroke="#000000" stroke-width="1.5" fill="none" stroke-dasharray="8 9"></path></g><g transform="translate(129.5743408203125 145.0006607026989) rotate(0 36.6843306452036 0.7096006040856366)"><path d="M46.73 9.7 C51.9 7.96, 60.34 4.81, 74.58 0.7" stroke="#000000" stroke-width="1.5" fill="none"></path></g><g transform="translate(129.5743408203125 145.0006607026989) rotate(0 36.6843306452036 0.7096006040856366)"><path d="M46.51 -10.82 C51.8 -6.42, 60.31 -3.42, 74.58 0.7" stroke="#000000" stroke-width="1.5" fill="none"></path></g></g><g stroke-linecap="round"><g transform="translate(407.8232421875 152.8822524995739) rotate(0 27.846321859955765 0.8397150605917147)"><path d="M-0.88 0.29 C8.67 0.48, 46.64 1.26, 56.58 1.39" stroke="#000000" stroke-width="1.5" fill="none" stroke-dasharray="8 9"></path></g><g transform="translate(407.8232421875 152.8822524995739) rotate(0 27.846321859955765 0.8397150605917147)"><path d="M29.86 9.13 C36.7 10.74, 42.59 6.92, 56.66 1.64" stroke="#000000" stroke-width="1.5" fill="none"></path></g><g transform="translate(407.8232421875 152.8822524995739) rotate(0 27.846321859955765 0.8397150605917147)"><path d="M30.19 -10.55 C36.99 -4.29, 42.81 -3.46, 56.66 1.64" stroke="#000000" stroke-width="1.5" fill="none"></path></g></g><g stroke-linecap="round"><g transform="translate(402.3713121880344 29.36500367413157) rotate(0 4.928132543497782 -5.2081323480805395)" fill-rule="evenodd"><path d="M-0.2 -0.7 L-0.6 -3.84 L3.91 -1.36 L4.74 -5.79 L4.45 -2.55 L8.65 -5.9 L10.29 -6.08 L10.82 -5.34 L14.26 -0.94 L21.81 -8.15 L18.87 -10.88 L14.82 -9.37 L14.64 -12.48 L13.15 -11.57 L9.26 -11.75 L4.56 -11.75 L0.36 -9.35 L-3.57 -8.81 L-4.4 -8.14 L-5.47 -5.22 L-8.21 -4.77 L-10.65 -1.9 L-8.64 2.39 L-0.24 -1.84" stroke="none" stroke-width="0" fill="#ea4335" fill-rule="evenodd"></path><path d="M0.21 -0.1 C0.2 -0.62, 0.67 -1.06, 1.04 -1.97 M0.04 -0.08 C0.39 -0.51, 0.72 -1.22, 1.11 -1.88 M0.96 -2.04 C1.72 -2.48, 2.01 -2.8, 2.64 -2.98 M1.17 -1.97 C1.36 -2.23, 1.83 -2.55, 2.56 -3.17 M2.53 -3.04 C2.77 -3.36, 3.16 -3.55, 4.47 -3.91 M2.44 -3.14 C3 -3.28, 3.42 -3.56, 4.22 -3.81 M4.35 -3.81 C4.88 -4, 5.63 -4.27, 6.2 -4.31 M4.26 -3.78 C4.99 -4.11, 5.72 -4.17, 6.27 -4.36 M6.28 -4.22 C6.72 -4.27, 7.4 -4.53, 8.17 -4.52 M6.26 -4.36 C6.66 -4.39, 6.9 -4.27, 8.02 -4.38 M8.01 -4.63 C8.6 -4.4, 9.62 -4.34, 10.31 -3.98 M8.19 -4.37 C8.82 -4.46, 9.54 -4.23, 10.59 -4.22 M10.47 -4.38 C11.45 -3.86, 11.89 -3.63, 12.36 -3.64 M10.51 -4.31 C10.94 -4.05, 11.66 -3.98, 12.42 -3.71 M12.68 -3.55 C13.12 -3.17, 13.37 -3.24, 14.5 -2.43 M12.59 -3.66 C13.13 -3.25, 13.82 -2.88, 14.4 -2.5 M13.92 -3.35 C17.15 -4.2, 18.23 -6.49, 20.48 -8.57 M14.09 -2.92 C16.01 -3.62, 17.09 -5.61, 20.31 -7.95 M19.95 -8.07 C19.63 -8.55, 19.07 -8.76, 18.3 -9.65 M20.23 -7.93 C19.58 -8.38, 19.14 -8.72, 18.17 -9.48 M17.99 -9.51 C17.54 -10.05, 16.34 -10.68, 16.21 -10.79 M18.01 -9.38 C17.6 -9.87, 16.94 -10.25, 16.13 -10.71 M16.08 -10.98 C15.88 -10.74, 15.22 -11.1, 14.24 -11.69 M16.19 -10.89 C15.35 -10.99, 14.71 -11.2, 14.22 -11.54 M14.14 -11.76 C13.24 -11.53, 12.44 -12.33, 11.21 -12.34 M14.21 -11.55 C13.04 -11.85, 12.32 -12.38, 11.24 -12.53 M11.23 -12.33 C9.88 -12.49, 8.96 -12.63, 7.35 -12.95 M11.33 -12.74 C10.04 -12.59, 8.73 -12.8, 7.41 -12.85 M7.25 -12.72 C6.47 -12.42, 5.47 -12.2, 4.47 -11.99 M7.57 -12.64 C6.64 -12.47, 5.46 -12.27, 4.57 -12.02 M4.16 -12.51 C3.88 -11.85, 3.38 -12.05, 0.92 -11.07 M4.46 -12.33 C3.39 -11.92, 2.61 -11.59, 1.14 -11.2 M1.35 -11.24 C0.09 -10.7, -0.53 -10.63, -1.45 -9.87 M1.09 -11.15 C0.62 -11, -0.02 -10.66, -1.76 -10 M-1.73 -9.81 C-2.18 -9.66, -3.29 -8.81, -4.66 -7.48 M-1.7 -9.85 C-2.64 -9.11, -3.36 -8.39, -4.68 -7.52 M-4.29 -7.39 C-5.14 -6.9, -5.29 -6.66, -6.46 -5.39 M-4.69 -7.48 C-5.05 -6.98, -5.68 -6.43, -6.54 -5.69 M-6.3 -5.81 C-7 -5.12, -7.2 -4.68, -8.08 -2.96 M-6.59 -5.47 C-6.92 -4.97, -7.2 -4.31, -7.84 -3.22 M-8.09 -3.31 C-8.29 -2.42, -8.32 -2.15, -8.89 -1.23 M-8.04 -3.28 C-8.47 -2.46, -8.89 -1.51, -9.03 -1.17 M-8.81 -0.92 C-9.02 0.04, -9.89 0.68, -10.23 2.5 M-8.98 -1.08 C-9.49 -0.02, -9.76 1.57, -10.07 2.43 M-10.62 2.44 C-7.94 2.21, -6.6 1.46, 0.15 -0.74 M-10.22 2.53 C-7.28 1.56, -4.05 1.27, 0.36 0.02 M-0.09 -0.12 C-0.06 -0.1, -0.05 -0.05, 0 -0.01 M-0.08 -0.13 C-0.07 -0.08, -0.03 -0.04, -0.01 0" stroke="#b42d21" stroke-width="1" fill="none"></path></g></g><g stroke-linecap="round"><g transform="translate(410.368840781004 45.98263513898553) rotate(0 -9.164668358746326 4.1793793465564875)" fill-rule="evenodd"><path d="M-1.46 0.87 L-1.78 7.55 L-11.66 6.45 L-14.88 6.97 L-15.24 4.43 L-19 3.72 L-13.41 0.4 L-9.32 -1.06 L-0.26 0.41" stroke="none" stroke-width="0" fill="#34a853" fill-rule="evenodd"></path><path d="M-0.38 -0.53 C-0.09 2.72, 0.59 5.48, -0.08 8.1 M-0.31 0.25 C0.18 3.01, -0.29 5.51, 0.23 8.32 M-0.57 9 C-4.41 7.65, -7.45 8.93, -10.65 7.47 M-0.15 7.61 C-4.32 8.42, -8.9 8.55, -11.84 7.57 M-11.33 7.88 C-12.36 7.73, -13.19 7.99, -14.31 7.38 M-11.47 8.06 C-12.25 7.76, -13.21 7.58, -14.16 7.54 M-14.16 7.3 C-14.77 7.14, -15.47 6.94, -16.71 6.52 M-14.12 7.45 C-14.97 7.21, -15.47 6.96, -16.77 6.39 M-16.61 6.26 C-17.01 6.08, -17.62 5.95, -18.25 5.27 M-16.74 6.41 C-17.25 5.97, -17.61 5.68, -18.12 5.42 M-18.78 4.85 C-16.88 4.56, -15.53 2.01, -11.64 -0.42 M-17.9 5.35 C-16.49 3.11, -13.99 1.59, -12.47 -0.18 M-12.61 -0.37 C-11.72 -0.54, -11.13 -0.33, -10.45 0 M-12.55 -0.64 C-11.89 -0.29, -11.4 -0.28, -10.52 0.03 M-9.98 0.8 C-7.22 -0.42, -6.72 0.94, 0.45 1.01 M-10.54 -0.33 C-7.32 -0.52, -4.42 0.48, 0.11 0.35 M-0.14 0.06 C-0.08 0.03, -0.05 0.02, -0.01 -0.01 M-0.14 0.05 C-0.1 0.04, -0.08 0.03, 0 0" stroke="#216f36" stroke-width="1" fill="none"></path></g></g><g stroke-linecap="round"><g transform="translate(422.4074851357341 21.20912273751219) rotate(0 -0.7722876456355152 16.71214939414864)" fill-rule="evenodd"><path d="M1.71 -0.41 L-7.35 6.4 L-4.4 6.03 L-4.37 9.54 L-2.77 9.68 L-3.5 12.45 L-2.1 15.41 L-1.64 13.37 L1.42 17.09 L3.01 19.23 L3.39 20.79 L0.69 23.63 L1.62 23.63 L1.55 23.14 L-1.62 23.54 L-13.63 25.62 L-13.85 34.06 L1.52 32.94 L3.78 31.11 L5.1 30.59 L6.35 28.15 L8.22 25.58 L11.07 24.51 L9.79 21.09 L10.29 16.06 L8.19 14.11 L5.76 12.47 L5.17 9.65 L2.27 6.63 L3.63 1.38 L-1.71 0.89" stroke="none" stroke-width="0" fill="#4285f4" fill-rule="evenodd"></path><path d="M-0.52 -0.02 C-1.31 1.83, -2.62 2.32, -5.69 5.9 M0.24 0.22 C-1.14 1.12, -2.79 2.98, -5.48 5.63 M-5.52 5.46 C-5.45 5.85, -4.97 6.36, -4.56 7.12 M-5.74 5.6 C-5.31 5.91, -4.98 6.23, -4.55 6.96 M-4.58 6.88 C-4.24 7.32, -3.63 7.84, -3.42 8.52 M-4.46 6.98 C-4.31 7.23, -4.09 7.65, -3.32 8.44 M-3.51 8.51 C-3.16 8.99, -2.83 9.69, -2.29 10.47 M-3.37 8.4 C-3.01 9.23, -2.65 9.86, -2.4 10.54 M-2.54 10.65 C-2.32 11.15, -2.06 11.94, -2.26 12.59 M-2.37 10.49 C-2.4 11.25, -2.27 11.83, -2.08 12.46 M-2.21 12.51 C-1.9 13.1, -2.13 13.91, -1.88 14.64 M-2.09 12.45 C-2.06 13.15, -1.88 13.66, -1.82 14.54 M-1.75 14.68 C-1.37 14.82, -0.66 14.8, -0.14 14.83 M-1.99 14.55 C-1.44 14.55, -1.2 14.64, -0.11 14.78 M0.04 15.02 C0.41 15.11, 1.2 15.74, 1.52 15.9 M-0.15 14.85 C0.42 15.2, 1.16 15.71, 1.41 15.89 M1.57 15.96 C1.66 16.4, 2.21 16.77, 2.58 17.52 M1.43 15.96 C1.86 16.49, 2.44 17.32, 2.66 17.62 M2.69 17.52 C2.77 18.45, 3.17 19.07, 3.06 19.82 M2.65 17.7 C2.86 18.31, 2.99 18.81, 3.26 20.01 M3.34 19.94 C2.82 20.45, 2.95 21.21, 2.59 21.95 M3.18 19.97 C2.93 20.53, 2.89 21.23, 2.54 22.17 M2.83 22.35 C2.08 22.68, 1.7 23.05, 1.38 23.79 M2.59 22.21 C2.15 22.83, 1.65 23.26, 1.2 23.76 M1.17 23.85 C0.6 23.84, 0.15 24.41, -0.31 24.58 M1.16 23.72 C0.87 23.85, 0.39 24.2, -0.34 24.53 M-0.41 24.62 C-0.72 24.62, -1.43 24.49, -2.32 24.91 M-0.26 24.55 C-0.88 24.5, -1.67 24.54, -2.38 24.68 M-2.26 24.96 C-4.71 25.05, -8.13 25.25, -11.65 24.65 M-2.08 24.92 C-4.83 25.03, -6.64 25.2, -12.41 24.35 M-11.65 24.96 C-11.31 27.01, -12.47 31.06, -12.24 32.28 M-12.32 24.7 C-12.1 27.52, -11.87 30.03, -11.97 32.65 M-12.73 33.44 C-7.83 32.16, -2.83 32.94, -1.51 31.74 M-11.62 32.79 C-7.77 32.87, -4.05 32.35, -0.82 32.72 M-0.3 32.45 C0.54 32.48, 1.95 32.29, 2.74 31.92 M-0.5 32.79 C0.69 32.59, 1.63 32.31, 2.68 32.19 M2.65 32.27 C3.96 31.43, 4.64 31.28, 5.29 30.36 M2.78 32.2 C3.24 31.91, 3.89 31.34, 5.3 30.65 M5.22 30.56 C6.12 29.86, 6.8 29.68, 7.56 28.84 M5.36 30.64 C6.04 30.21, 6.66 29.7, 7.65 28.91 M7.61 29.08 C8.57 27.78, 9.01 26.95, 9.74 25.92 M7.57 28.73 C7.97 28.33, 8.45 27.61, 9.33 26.09 M9.71 26.45 C9.5 25.46, 10.08 24.56, 10.9 23.4 M9.37 26.02 C9.89 25.38, 10.36 24.22, 10.59 23.25 M10.77 23.26 C10.63 22.04, 11.09 20.64, 11.11 19.88 M10.73 23.09 C10.95 22.22, 11.12 21.13, 11.1 19.5 M11.19 19.36 C10.81 18.74, 10.87 17.55, 10.85 15.74 M10.99 19.49 C11.04 18.75, 10.82 18.07, 10.7 15.95 M11.01 16.09 C10.1 15.06, 10.4 14.8, 8.98 12.91 M10.71 16.15 C10.57 15.35, 10.19 14.6, 9.12 13.06 M9.38 13.19 C8.84 12.18, 8.22 11.26, 7.85 10.21 M9.3 12.97 C8.61 11.95, 7.92 11.13, 7.68 10.49 M7.63 10.41 C6.74 9.96, 6.45 9.46, 5.39 8.87 M7.5 10.45 C6.99 10.02, 6.14 9.62, 5.58 8.86 M5.11 8.95 C5.36 7.93, 4.8 6.93, 3.9 5.11 M5.45 8.98 C5.18 8.22, 5.01 7.46, 4.1 5.11 M4.08 5.1 C3.79 4.36, 3.43 4.21, 2.52 3.01 M4.11 5.01 C3.59 4.45, 3.07 3.53, 2.74 2.83 M2.97 3.08 C2.04 1.79, 0.39 0.34, 0.26 0.09 M2.53 2.86 C1.58 1.76, 0.9 0.79, 0.18 0.08 M0.21 0.07 C0.11 0.03, 0.05 0.02, 0.02 0.01 M0.19 0.07 C0.12 0.03, 0.05 0.01, 0 0.01" stroke="#1864ab" stroke-width="1" fill="none"></path></g></g><g stroke-linecap="round"><g transform="translate(404.6818388348855 38.57141128754756) rotate(0 -5.868617577661837 1.1597433268098598)" fill-rule="evenodd"><path d="M-0.83 -0.03 L6.18 -5.21 L2.03 -8.02 L1.04 -11.1 L-3.36 -9.14 L-6.63 -10.91 L-10.11 -9.83 L-14.44 -6.2 L-14.85 -2.67 L-16.71 -1.65 L-18.12 1.07 L-17.09 6.81 L-15.99 7 L-16.07 10.73 L-12.71 11.3 L-6.03 5.11 L-10.73 6.13 L-11.29 0.58 L-9.3 -0.3 L-7.86 -3.62 L-4.7 -3.09 L-2.28 -3.47" stroke="none" stroke-width="0" fill="#fbbc05" fill-rule="evenodd"></path><path d="M-0.02 -0.15 C3.06 -2.5, 4.65 -4.55, 6.3 -6.24 M0.24 0.26 C1.78 -1.95, 4.26 -3.71, 6.01 -6.11 M5.7 -5.93 C5.3 -6.03, 5.11 -7.03, 3.67 -8.42 M5.98 -5.74 C4.95 -6.61, 3.94 -7.79, 3.36 -8.25 M3.22 -8.43 C2.29 -8.48, 1.51 -9.4, 0.59 -10.23 M3.4 -8.36 C2.62 -8.75, 2.13 -8.94, 0.46 -9.92 M0.59 -10.03 C-0.91 -10.34, -2.01 -10.42, -3.39 -10.79 M0.4 -9.85 C-0.47 -10.11, -1.67 -10.46, -3.27 -10.86 M-3.08 -11.05 C-4.46 -10.8, -5.39 -11.18, -6.24 -10.79 M-3.34 -11.14 C-4.16 -11.01, -5.27 -10.86, -6.45 -10.81 M-6.38 -10.53 C-7.49 -10.85, -8.12 -10.2, -10.19 -9.83 M-6.5 -10.9 C-7.8 -10.23, -9.48 -9.81, -10.4 -9.59 M-10.09 -10.09 C-11.09 -9.27, -12.41 -8.37, -13.88 -7.58 M-10.39 -9.57 C-11.7 -9.13, -12.76 -8.22, -14.01 -7.03 M-13.49 -7.35 C-14.94 -5.78, -15.31 -4.7, -16.01 -4.03 M-13.85 -7.38 C-14.81 -5.97, -15.45 -4.96, -16.03 -4.42 M-15.93 -4.5 C-16.41 -3.46, -16.94 -3.01, -17.55 -0.99 M-15.93 -4.41 C-16.54 -3.56, -16.66 -2.93, -17.4 -1.2 M-17.57 -1.4 C-17.47 -0.28, -17.82 0.07, -18.03 2.09 M-17.29 -1.25 C-17.39 0.01, -17.67 1.34, -17.76 2.21 M-17.85 1.99 C-17.86 3.16, -17.5 3.72, -17.55 5.29 M-17.82 2.15 C-17.71 2.96, -17.42 3.46, -17.22 5.49 M-16.99 5.32 C-17.02 6.22, -16.97 7.05, -16.15 8.19 M-17.18 5.44 C-16.76 6.46, -16.59 7.32, -16.19 8.05 M-16.04 7.87 C-16.09 8.75, -15.21 9.5, -14.74 10.38 M-16.25 8.1 C-15.93 8.87, -15.27 9.65, -14.82 10.33 M-14.67 10.64 C-13.97 11.04, -13.49 12.24, -12.1 12.89 M-14.79 10.59 C-14.01 11.25, -13.08 12.48, -12.48 12.92 M-12.19 13.46 C-10.94 11.71, -9.61 10.61, -6.83 6.17 M-12.22 12.84 C-10.43 11.3, -8.54 8.59, -7.09 6.9 M-6.71 6.88 C-7.43 6.12, -7.51 5.79, -8.97 4.95 M-6.8 6.59 C-7.33 6.1, -7.98 5.53, -8.85 4.99 M-8.65 4.89 C-9.26 4.07, -9.36 2.61, -9.85 2.39 M-8.81 4.91 C-9.01 4.04, -9.36 3.27, -9.61 2.34 M-9.83 1.99 C-9.38 1.42, -9.13 0.76, -8.97 -0.28 M-9.54 2.24 C-9.32 1.42, -9.16 0.74, -8.74 -0.32 M-8.68 -0.15 C-8.28 -1.11, -7.31 -1.99, -7.38 -2.46 M-8.73 -0.48 C-8.36 -0.83, -8.22 -1.25, -7.14 -2.22 M-7.23 -2.33 C-6.3 -2.62, -4.85 -2.82, -4.37 -3.03 M-7.14 -2.22 C-6.49 -2.29, -5.93 -2.56, -4.3 -2.86 M-4.15 -2.59 C-3.91 -2.43, -3.24 -2.06, -1.83 -2.03 M-4.47 -2.98 C-3.74 -2.62, -3.28 -2.49, -1.67 -1.8 M-1.39 -1.96 C-0.92 -1.17, -0.41 -0.39, 0.19 0.04 M-1.7 -1.73 C-0.95 -1.1, -0.56 -0.7, 0.08 0.02" stroke="#c7970f" stroke-width="1" fill="none"></path></g></g><g stroke-linecap="round" transform="translate(24.580477813969992 12.568127997023396) rotate(23.3891904793434 5.446184274474859 19.462014126263625)"><path d="M0 0 L10.89 0 L10.89 38.92 L0 38.92" stroke="none" stroke-width="0" fill="#221be6"></path><path d="M0 0 C2.56 0, 5.11 0, 10.89 0 M0 0 C4.21 0, 8.41 0, 10.89 0 M10.89 0 C10.89 10.93, 10.89 21.86, 10.89 38.92 M10.89 0 C10.89 8.93, 10.89 17.87, 10.89 38.92 M10.89 38.92 C6.74 38.92, 2.58 38.92, 0 38.92 M10.89 38.92 C8.08 38.92, 5.27 38.92, 0 38.92 M0 38.92 C0 28.78, 0 18.65, 0 0 M0 38.92 C0 25.97, 0 13.01, 0 0" stroke="#221be6" stroke-width="1" fill="none"></path></g><g stroke-linecap="round" transform="translate(29.852407065158786 9.21714722286265) rotate(52.796968678207634 2.5773919552081566 11.28395332134906)"><path d="M0 0 L5.15 0 L5.15 22.57 L0 22.57" stroke="none" stroke-width="0" fill="white"></path><path d="M0 0 C1.99 0, 3.98 0, 5.15 0 M0 0 C1.66 0, 3.31 0, 5.15 0 M5.15 0 C5.15 6.55, 5.15 13.1, 5.15 22.57 M5.15 0 C5.15 7.45, 5.15 14.9, 5.15 22.57 M5.15 22.57 C3.25 22.57, 1.34 22.57, 0 22.57 M5.15 22.57 C3.2 22.57, 1.24 22.57, 0 22.57 M0 22.57 C0 17.8, 0 13.02, 0 0 M0 22.57 C0 15.68, 0 8.79, 0 0" stroke="white" stroke-width="1" fill="none"></path></g><g stroke-linecap="round" transform="translate(28.649162711544705 11.29912816512035) rotate(52.796968678207634 4.0987503697771785 4.971479818639324)"><path d="M0 0 L8.2 0 L8.2 9.94 L0 9.94" stroke="none" stroke-width="0" fill="white"></path><path d="M0 0 C2.94 0, 5.89 0, 8.2 0 M0 0 C2.77 0, 5.55 0, 8.2 0 M8.2 0 C8.2 2.46, 8.2 4.92, 8.2 9.94 M8.2 0 C8.2 2.06, 8.2 4.12, 8.2 9.94 M8.2 9.94 C5.01 9.94, 1.81 9.94, 0 9.94 M8.2 9.94 C5.19 9.94, 2.19 9.94, 0 9.94 M0 9.94 C0 7.9, 0 5.85, 0 0 M0 9.94 C0 7.28, 0 4.62, 0 0" stroke="white" stroke-width="1" fill="none"></path></g><g stroke-linecap="round" transform="translate(18.15821852533861 45.650750147558256) rotate(344.65833534700243 7.220454353180713 3.727138060813502)"><path d="M0 0 L14.44 0 L14.44 7.45 L0 7.45" stroke="none" stroke-width="0" fill="white"></path><path d="M0 0 C5.27 0, 10.55 0, 14.44 0 M0 0 C3.9 0, 7.81 0, 14.44 0 M14.44 0 C14.44 2.51, 14.44 5.01, 14.44 7.45 M14.44 0 C14.44 2.14, 14.44 4.28, 14.44 7.45 M14.44 7.45 C10.61 7.45, 6.78 7.45, 0 7.45 M14.44 7.45 C10.45 7.45, 6.46 7.45, 0 7.45 M0 7.45 C0 5.19, 0 2.92, 0 0 M0 7.45 C0 5.81, 0 4.17, 0 0" stroke="white" stroke-width="1" fill="none"></path></g><g stroke-linecap="round" transform="translate(42.995257536566555 20.18934595022165) rotate(324.5531222368468 7.539862910548834 19.462014126263654)"><path d="M0 0 L15.08 0 L15.08 38.92 L0 38.92" stroke="none" stroke-width="0" fill="#221be6"></path><path d="M0 0 C3.53 0, 7.05 0, 15.08 0 M0 0 C5.85 0, 11.71 0, 15.08 0 M15.08 0 C15.08 9.54, 15.08 19.08, 15.08 38.92 M15.08 0 C15.08 14.19, 15.08 28.38, 15.08 38.92 M15.08 38.92 C10.54 38.92, 5.99 38.92, 0 38.92 M15.08 38.92 C11.96 38.92, 8.84 38.92, 0 38.92 M0 38.92 C0 23.51, 0 8.09, 0 0 M0 38.92 C0 27.99, 0 17.05, 0 0" stroke="#221be6" stroke-width="1" fill="none"></path></g><g stroke-linecap="round" transform="translate(30.657358377722744 24.088980631863365) rotate(292.19841960753064 10.153282293959677 2.0637450074846697)"><path d="M0 0 L20.31 0 L20.31 4.13 L0 4.13" stroke="none" stroke-width="0" fill="white"></path><path d="M0 0 C7.75 0, 15.5 0, 20.31 0 M0 0 C5.79 0, 11.59 0, 20.31 0 M20.31 0 C20.31 0.96, 20.31 1.93, 20.31 4.13 M20.31 0 C20.31 1.6, 20.31 3.21, 20.31 4.13 M20.31 4.13 C15.82 4.13, 11.33 4.13, 0 4.13 M20.31 4.13 C13.42 4.13, 6.52 4.13, 0 4.13 M0 4.13 C0 2.54, 0 0.94, 0 0 M0 4.13 C0 2.72, 0 1.31, 0 0" stroke="white" stroke-width="1" fill="none"></path></g><g stroke-linecap="round" transform="translate(45.071117761800224 31.241953151145196) rotate(269.11174668474445 1.4457970524394455 19.462014126263625)"><path d="M0 0 L2.89 0 L2.89 38.92 L0 38.92" stroke="none" stroke-width="0" fill="#221be6"></path><path d="M0 0 C1.02 0, 2.04 0, 2.89 0 M0 0 C0.81 0, 1.62 0, 2.89 0 M2.89 0 C2.89 9.59, 2.89 19.19, 2.89 38.92 M2.89 0 C2.89 13.83, 2.89 27.67, 2.89 38.92 M2.89 38.92 C1.75 38.92, 0.61 38.92, 0 38.92 M2.89 38.92 C1.98 38.92, 1.06 38.92, 0 38.92 M0 38.92 C0 29.67, 0 20.41, 0 0 M0 38.92 C0 24.58, 0 10.24, 0 0" stroke="#221be6" stroke-width="1" fill="none"></path></g><g stroke-linecap="round" transform="translate(47.74542275914553 52.173545304124104) rotate(359.5136422661421 10.153282293959677 3.91727909166886)"><path d="M0 0 L20.31 0 L20.31 7.83 L0 7.83" stroke="none" stroke-width="0" fill="white"></path><path d="M0 0 C5.59 0, 11.18 0, 20.31 0 M0 0 C5.2 0, 10.39 0, 20.31 0 M20.31 0 C20.31 2.4, 20.31 4.8, 20.31 7.83 M20.31 0 C20.31 1.99, 20.31 3.98, 20.31 7.83 M20.31 7.83 C15.84 7.83, 11.37 7.83, 0 7.83 M20.31 7.83 C13.37 7.83, 6.44 7.83, 0 7.83 M0 7.83 C0 5.7, 0 3.56, 0 0 M0 7.83 C0 6.11, 0 4.38, 0 0" stroke="white" stroke-width="1" fill="none"></path></g><g stroke-linecap="round" transform="translate(36.662879486524844 37.75469128641663) rotate(52.16506192482068 11.627230891487699 1.1212786270087918)"><path d="M0 0 L23.25 0 L23.25 2.24 L0 2.24" stroke="none" stroke-width="0" fill="white"></path><path d="M0 0 C8.1 0, 16.19 0, 23.25 0 M0 0 C8.94 0, 17.88 0, 23.25 0 M23.25 0 C23.25 0.53, 23.25 1.06, 23.25 2.24 M23.25 0 C23.25 0.86, 23.25 1.72, 23.25 2.24 M23.25 2.24 C17.86 2.24, 12.47 2.24, 0 2.24 M23.25 2.24 C16.12 2.24, 8.98 2.24, 0 2.24 M0 2.24 C0 1.57, 0 0.9, 0 0 M0 2.24 C0 1.51, 0 0.78, 0 0" stroke="white" stroke-width="1" fill="none"></path></g><g stroke-linecap="round" transform="translate(26.844443456896556 47.36166918870617) rotate(351.2334066112453 13.812798026924014 1.7436911768099321)"><path d="M0 0 L27.63 0 L27.63 3.49 L0 3.49" stroke="none" stroke-width="0" fill="white"></path><path d="M0 0 C6.57 0, 13.14 0, 27.63 0 M0 0 C9.9 0, 19.81 0, 27.63 0 M27.63 0 C27.63 1.24, 27.63 2.48, 27.63 3.49 M27.63 0 C27.63 0.92, 27.63 1.83, 27.63 3.49 M27.63 3.49 C20.83 3.49, 14.03 3.49, 0 3.49 M27.63 3.49 C19.57 3.49, 11.52 3.49, 0 3.49 M0 3.49 C0 2.41, 0 1.34, 0 0 M0 3.49 C0 2.37, 0 1.25, 0 0" stroke="white" stroke-width="1" fill="none"></path></g><g stroke-linecap="round" transform="translate(35.15786924884753 36.36207060982889) rotate(52.16506192482068 8.847469426814627 3.92234458502665)"><path d="M0 0 L17.69 0 L17.69 7.84 L0 7.84" stroke="none" stroke-width="0" fill="white"></path><path d="M0 0 C3.74 0, 7.47 0, 17.69 0 M0 0 C4.82 0, 9.64 0, 17.69 0 M17.69 0 C17.69 1.86, 17.69 3.71, 17.69 7.84 M17.69 0 C17.69 2.97, 17.69 5.93, 17.69 7.84 M17.69 7.84 C12.57 7.84, 7.44 7.84, 0 7.84 M17.69 7.84 C13.41 7.84, 9.12 7.84, 0 7.84 M0 7.84 C0 5.24, 0 2.63, 0 0 M0 7.84 C0 5.29, 0 2.73, 0 0" stroke="white" stroke-width="1" fill="none"></path></g><g stroke-linecap="round"><g transform="translate(49.21738725339043 115.40727509905099) rotate(0 30.437627126819194 27.98865942658486)" fill-rule="evenodd"><path d="M1.21 -0.79 L0.38 56.2 L17.92 64.23 L30.56 62.06 L51.77 63.09 L58.4 57.75 L61.68 -0.86 L44.61 -6.96 L28.54 -4.94 L11.76 -6.87 L0.37 -0.35" stroke="none" stroke-width="0" fill="#fa5252" fill-rule="evenodd"></path><path d="M-1.04 -0.18 C-1.14 7.79, -0.58 37.78, -0.38 47.56 C-0.18 57.34, -1.21 56.48, 0.18 58.5 C1.57 60.52, 4.91 58.87, 7.95 59.7 C10.98 60.54, 14.7 62.77, 18.39 63.51 C22.09 64.25, 26.33 64.38, 30.12 64.15 C33.91 63.93, 37.85 62.51, 41.14 62.17 C44.43 61.82, 46.56 62.77, 49.85 62.08 C53.13 61.4, 59.2 60.28, 60.87 58.05 C62.53 55.83, 59.68 57.16, 59.81 48.72 C59.94 40.28, 61.6 15.64, 61.65 7.41 C61.7 -0.81, 61.64 1.19, 60.11 -0.63 C58.58 -2.44, 55.22 -2.59, 52.47 -3.5 C49.72 -4.42, 46.98 -5.47, 43.63 -6.1 C40.28 -6.74, 35.49 -7.11, 32.36 -7.31 C29.23 -7.52, 28.45 -7.59, 24.84 -7.32 C21.23 -7.05, 14.73 -7.1, 10.71 -5.7 C6.69 -4.29, 2.69 -0.02, 0.71 1.12 M0.61 -1.31 C0.3 6.77, -1.86 38.83, -1.53 48.5 C-1.19 58.16, 1.02 54.71, 2.61 56.68 C4.19 58.64, 5.05 59.04, 7.97 60.26 C10.88 61.48, 16.24 63.52, 20.09 64.01 C23.94 64.5, 27.43 63.23, 31.06 63.21 C34.69 63.19, 38.95 64.09, 41.87 63.88 C44.78 63.67, 45.57 63.07, 48.56 61.95 C51.55 60.82, 57.86 59.42, 59.82 57.14 C61.78 54.86, 59.88 56.94, 60.32 48.27 C60.75 39.61, 62.68 13.4, 62.41 5.14 C62.15 -3.11, 60.35 0.28, 58.73 -1.27 C57.11 -2.81, 55.36 -3.28, 52.69 -4.14 C50.02 -4.99, 46.12 -5.69, 42.73 -6.38 C39.35 -7.07, 35.27 -8.26, 32.36 -8.28 C29.45 -8.29, 29.13 -7, 25.28 -6.49 C21.43 -5.98, 13.52 -6.02, 9.27 -5.21 C5.02 -4.39, 1.26 -2.17, -0.21 -1.59" stroke="#c92a2a" stroke-width="1" fill="none"></path></g></g><g stroke-linecap="round" transform="translate(48.99349116119356 108.01834502071085) rotate(0 30.351316545409134 8.252367538077834)"><path d="M28.38 0.33 C34.67 0.2, 42.57 1.21, 47.85 2.2 C53.13 3.18, 58.27 4.61, 60.06 6.24 C61.85 7.87, 61.3 10.53, 58.59 11.99 C55.88 13.45, 49.78 14.36, 43.8 15 C37.82 15.65, 29.01 16.24, 22.7 15.87 C16.4 15.51, 9.82 14.2, 5.99 12.82 C2.16 11.44, -0.59 9.31, -0.25 7.58 C0.08 5.85, 2.79 3.58, 8 2.43 C13.21 1.29, 26.74 1.06, 31 0.72 C35.26 0.38, 33.51 0.53, 33.56 0.39 M35.79 0.58 C41.86 0.76, 49.67 0.69, 53.59 1.97 C57.52 3.24, 59.33 6.47, 59.35 8.21 C59.37 9.95, 57.45 11.05, 53.68 12.43 C49.91 13.82, 43.12 16.15, 36.74 16.51 C30.35 16.87, 21.17 15.32, 15.36 14.61 C9.56 13.89, 4.41 13.76, 1.9 12.22 C-0.62 10.68, -1.86 7.22, 0.26 5.35 C2.37 3.47, 9.01 1.67, 14.58 0.97 C20.16 0.27, 30.59 1.32, 33.71 1.16 C36.82 0.99, 33.36 -0.02, 33.28 -0.03" stroke="none" stroke-width="0" fill="#ffffff"></path><path d="M16.04 0.05 C21.34 -0.92, 29.92 -0.19, 36.2 0.37 C42.49 0.92, 49.63 2.18, 53.73 3.39 C57.83 4.61, 61.04 5.88, 60.8 7.68 C60.56 9.47, 56.53 12.59, 52.27 14.17 C48.01 15.75, 41.69 17, 35.24 17.17 C28.79 17.35, 19.1 16.18, 13.57 15.21 C8.05 14.24, 3.95 13.11, 2.09 11.36 C0.22 9.62, -0.46 6.48, 2.39 4.73 C5.24 2.99, 15.92 1.61, 19.18 0.88 C22.44 0.15, 21.86 0.36, 21.96 0.33 M15.95 1.79 C21.68 0.75, 31.9 -1.68, 38.56 -1.28 C45.23 -0.88, 52.37 2.62, 55.95 4.19 C59.54 5.77, 60.8 6.73, 60.07 8.16 C59.34 9.6, 55.79 11.5, 51.57 12.82 C47.35 14.14, 41.28 15.53, 34.75 16.1 C28.22 16.68, 17.79 17.32, 12.39 16.25 C7 15.19, 3.97 11.38, 2.38 9.72 C0.79 8.05, 0.56 7.65, 2.84 6.26 C5.13 4.87, 13.88 2.37, 16.08 1.36 C18.28 0.34, 15.55 0.03, 16.07 0.16" stroke="#c92a2a" stroke-width="1" fill="none"></path></g><g transform="translate(47.055605042757975 179.74329809613562) rotate(0 32.074031733319316 7.493932647971775)"><text x="32.07403173331932" y="10.987865295943607" font-family="Virgil, Segoe UI Emoji" font-size="11.990292236754888px" fill="#000000" text-anchor="middle" style="white-space: pre;" direction="ltr">MSSQL DB</text></g><g stroke-linecap="round"><g transform="translate(595.5098037149596 121.68419677356559) rotate(0 30.982080054111066 29.208800318736053)" fill-rule="evenodd"><path d="M-1.31 -1.41 L2.02 58.98 L2.33 62.95 L21.38 64.16 L32.63 67.75 L51.38 64.35 L60.64 57.9 L63.76 0.47 L43.8 -5.77 L30.35 -8.65 L11.4 -3.98 L0.6 0.23" stroke="none" stroke-width="0" fill="#40c057" fill-rule="evenodd"></path><path d="M-1.15 -0.89 C-0.95 7.49, 0.78 40.01, 0.98 49.9 C1.18 59.8, -1.26 56.5, 0.05 58.5 C1.37 60.5, 5.51 60.71, 8.86 61.89 C12.21 63.07, 16.48 64.96, 20.16 65.58 C23.83 66.2, 27.14 65.44, 30.9 65.62 C34.67 65.79, 39.08 67.02, 42.75 66.63 C46.42 66.23, 49.75 64.37, 52.9 63.25 C56.06 62.13, 59.97 62.06, 61.67 59.92 C63.37 57.78, 62.97 59.25, 63.1 50.4 C63.22 41.56, 62.54 15.34, 62.43 6.84 C62.31 -1.66, 63.8 1.32, 62.41 -0.59 C61.02 -2.5, 57.02 -3.5, 54.07 -4.61 C51.12 -5.72, 48.16 -6.85, 44.7 -7.26 C41.23 -7.68, 36.34 -7.32, 33.28 -7.12 C30.22 -6.91, 29.8 -6.12, 26.35 -6.03 C22.9 -5.94, 16.76 -7.7, 12.55 -6.57 C8.34 -5.45, 3.26 -0.3, 1.09 0.73 M0.45 1.26 C0.59 9.84, 0.23 41.54, 0.55 51.21 C0.88 60.89, 0.96 57.44, 2.4 59.32 C3.84 61.21, 6.48 61.4, 9.21 62.52 C11.94 63.64, 15.03 65.75, 18.78 66.05 C22.53 66.35, 27.58 64.34, 31.72 64.32 C35.85 64.29, 40.16 66.19, 43.6 65.91 C47.04 65.63, 49.61 63.8, 52.34 62.65 C55.08 61.49, 58.63 61.09, 60.01 58.98 C61.38 56.87, 60.19 58.51, 60.61 49.99 C61.03 41.46, 62.44 16.35, 62.53 7.82 C62.63 -0.71, 62.58 1.06, 61.19 -1.21 C59.8 -3.47, 56.53 -5.23, 54.21 -5.76 C51.88 -6.29, 50.75 -4.04, 47.25 -4.39 C43.75 -4.74, 36.54 -7.25, 33.19 -7.86 C29.83 -8.48, 30.68 -8.31, 27.13 -8.07 C23.58 -7.84, 16.34 -8.04, 11.89 -6.45 C7.43 -4.86, 2.1 0.46, 0.38 1.48" stroke="#2b8a3e" stroke-width="1" fill="none"></path></g></g><g stroke-linecap="round" transform="translate(595.2784296908969 114.04848295217056) rotate(0 31.365023729575853 8.527989330207276)"><path d="M42.82 0.92 C48.93 1.51, 55.39 3.37, 58.67 4.99 C61.95 6.6, 63.82 8.9, 62.5 10.61 C61.19 12.32, 56.04 14.09, 50.78 15.25 C45.53 16.4, 37.62 17.64, 30.99 17.54 C24.36 17.45, 16.1 16.09, 11.02 14.69 C5.94 13.29, 1.65 10.86, 0.52 9.13 C-0.62 7.4, 0.75 5.86, 4.22 4.33 C7.7 2.81, 14.59 0.49, 21.38 -0.03 C28.16 -0.55, 40.82 0.92, 44.94 1.2 C49.06 1.47, 46.22 1.68, 46.09 1.63 M40.71 -0.88 C46.83 -0.58, 54.95 1.84, 58.4 3.68 C61.85 5.52, 62.44 8.36, 61.4 10.15 C60.36 11.94, 57.21 13.31, 52.16 14.42 C47.1 15.53, 37.66 16.92, 31.07 16.83 C24.48 16.73, 17.73 14.96, 12.61 13.87 C7.48 12.78, 1.79 12.05, 0.29 10.29 C-1.2 8.53, 0.18 5.17, 3.65 3.31 C7.13 1.45, 14.87 -0.2, 21.14 -0.86 C27.4 -1.52, 37.85 -0.65, 41.24 -0.65 C44.63 -0.65, 41.5 -1.27, 41.5 -0.84" stroke="none" stroke-width="0" fill="#ffffff"></path><path d="M25.93 -0.61 C32.31 -0.87, 41.41 0.29, 47.06 1.25 C52.71 2.21, 57.47 3.3, 59.83 5.16 C62.19 7.02, 63.21 10.68, 61.22 12.4 C59.24 14.12, 53.78 14.61, 47.92 15.48 C42.07 16.35, 32.72 17.86, 26.08 17.63 C19.44 17.4, 12.49 15.61, 8.09 14.1 C3.68 12.59, -0.25 10.45, -0.34 8.56 C-0.43 6.67, 2.41 4.28, 7.54 2.77 C12.67 1.26, 25.93 0.07, 30.46 -0.51 C34.99 -1.09, 34.8 -0.88, 34.73 -0.7 M23.53 1.54 C29.7 0.75, 41.07 -0.04, 47.15 0.43 C53.23 0.91, 57.84 2.48, 59.99 4.39 C62.15 6.3, 62.16 10.24, 60.08 11.9 C58 13.56, 52.86 13.33, 47.5 14.35 C42.14 15.37, 34.66 17.97, 27.9 18.02 C21.15 18.07, 11.43 16.26, 6.99 14.63 C2.54 13.01, 1.2 10.32, 1.24 8.3 C1.28 6.27, 3.4 3.61, 7.21 2.47 C11.03 1.33, 21.06 2.02, 24.13 1.46 C27.21 0.9, 25.36 -0.79, 25.66 -0.91" stroke="#2b8a3e" stroke-width="1" fill="none"></path></g><g transform="translate(593.275819886508 188.16898615497792) rotate(0 33.145276084272325 7.744223384175797)"><text x="33.145276084272346" y="10.488446768351563" font-family="Virgil, Segoe UI Emoji" font-size="12.39075741468125px" fill="#000000" text-anchor="middle" style="white-space: pre;" direction="ltr">Datastore</text></g><g stroke-linecap="round"><g transform="translate(528.2731628417969 153.13304595660514) rotate(0 28.695762434601818 0.18569379746915615)"><path d="M0.72 -0.82 C10.35 -0.52, 47.24 0.78, 56.68 1.19" stroke="#000000" stroke-width="1.5" fill="none" stroke-dasharray="8 9"></path></g><g transform="translate(528.2731628417969 153.13304595660514) rotate(0 28.695762434601818 0.18569379746915615)"><path d="M27.89 8.51 C35.61 7.62, 42.1 4.35, 55.68 1.83" stroke="#000000" stroke-width="1.5" fill="none"></path></g><g transform="translate(528.2731628417969 153.13304595660514) rotate(0 28.695762434601818 0.18569379746915615)"><path d="M28.66 -11.17 C36.12 -7.96, 42.45 -7.13, 55.68 1.83" stroke="#000000" stroke-width="1.5" fill="none"></path></g></g><g transform="translate(408.92840576171875 417.6241958589489) rotate(0 78 12.5)"><text x="0" y="18" font-family="Virgil, Segoe UI Emoji" font-size="20px" fill="#000000" text-anchor="start" style="white-space: pre;" direction="ltr">Application code</text></g></svg>