<svg version="1.1" xmlns="http://www.w3.org/2000/svg" viewBox="0 0 740.470703125 288.73785400390625" width="740.470703125" height="288.73785400390625">
  <!-- svg-source:excalidraw -->
  
  <defs>
    <style>
      @font-face {
        font-family: "Virgil";
        src: url("https://excalidraw.com/Virgil.woff2");
      }
      @font-face {
        font-family: "Cascadia";
        src: url("https://excalidraw.com/Cascadia.woff2");
      }
    </style>
  </defs>
  <g stroke-linecap="round" transform="translate(30.85357666015625 80.43292236328125) rotate(0 55.878631591796875 24.38226318359375)"><path d="M-0.44 1.58 C38.21 2.65, 72.47 2.22, 110.18 1.97 M-0.4 0.03 C31.05 0.31, 61.56 -0.31, 111.13 0.41 M112.5 -0.25 C113.96 16.35, 111.2 34.04, 110.1 48.6 M110.99 0.6 C112.75 14, 112.38 27.33, 111.34 49.65 M113.63 50.32 C82.27 50.54, 53 48.1, 1.79 47.48 M111.26 49.27 C81.99 50.51, 50.04 48.72, 0.83 49.47 M1.32 47.28 C-0.55 33.27, 1.22 12.59, 1.24 -0.19 M-0.02 48.19 C0.52 34.94, -0.54 18.9, 0.67 0.4" stroke="#000000" stroke-width="1" fill="none"></path></g><g transform="translate(60.2410888671875 92.43087768554688) rotate(0 22 12.5)"><text x="0" y="18" font-family="Virgil, Segoe UI Emoji" font-size="20px" fill="#000000" text-anchor="start" style="white-space: pre;" direction="ltr">post</text></g><g stroke-linecap="round" transform="translate(30.815643310546875 143.73214721679688) rotate(0 88.27334594726562 24.38226318359375)"><path d="M1.93 1.75 C38.62 -0.08, 75.81 0.57, 176.04 -0.73 M0.37 0.76 C60.2 0.07, 119.38 0.35, 177.11 0.73 M178.39 -1.01 C175.82 13.99, 175.07 29.16, 176 50.4 M177.14 0.7 C176.39 17.06, 175.75 33.52, 176.11 49.38 M175.72 49.69 C108.64 48.61, 45.4 48.85, -0.54 47.15 M177.28 49.74 C110.81 48.84, 47.31 50.35, 0.51 48.55 M-0.65 50.38 C0.79 30.73, 0.92 16.41, -0.03 -0.69 M0.35 49.5 C-0.7 34.41, 0.68 21.94, 0.96 0.72" stroke="#000000" stroke-width="1" fill="none"></path></g><g transform="translate(48.053802490234375 155.74151611328125) rotate(0 72.5 12.5)"><text x="0" y="18" font-family="Virgil, Segoe UI Emoji" font-size="20px" fill="#000000" text-anchor="start" style="white-space: pre;" direction="ltr">post_category</text></g><g stroke-linecap="round" transform="translate(32.740447998046875 207.7515869140625) rotate(0 56 24.38226318359375)"><path d="M-0.07 1.31 C40.86 0.98, 84.36 -1.71, 112.8 -0.79 M0.19 0.13 C33.36 -0.44, 68.52 -0.11, 112.01 0.37 M111.09 -0.67 C110.79 13.85, 111.9 29.66, 112.69 47.22 M112.22 0.74 C111.87 18.44, 111.85 35.72, 112.76 49.7 M110.56 47.24 C71.5 48, 26.87 47.67, 1.37 47.77 M111.3 47.95 C73.63 50.56, 34.09 49.65, 0.3 49.42 M1.11 46.82 C1.4 37.57, 0.13 26.07, -0.42 -0.04 M-0.7 48.01 C0.5 37.34, 0.79 25.84, -0.46 0.11" stroke="#000000" stroke-width="1" fill="none"></path></g><g transform="translate(37.740447998046875 219.63385009765625) rotate(0 51 12.5)"><text x="51" y="18" font-family="Virgil, Segoe UI Emoji" font-size="20px" fill="#000000" text-anchor="middle" style="white-space: pre;" direction="ltr">category</text></g><g stroke-linecap="round" transform="translate(10 59.35028076171875) rotate(0 146.87393188476562 108.50009155273438)"><path d="M-0.38 -0.54 C108 -2.73, 214.86 -1.59, 294.87 0.29 M294.72 1.28 C292.58 68.62, 292.34 137.56, 292.87 216.21 M293.34 218.22 C216.02 215.68, 138.15 217.7, 1.05 217.33 M-0.76 218.08 C2.12 137.44, 2.14 53.9, 0.8 -1.26" stroke="#000000" stroke-width="1.5" fill="none" stroke-dasharray="8 9"></path></g><g transform="translate(125.3167724609375 10) rotate(0 33.5 12.5)"><text x="0" y="18" font-family="Virgil, Segoe UI Emoji" font-size="20px" fill="#000000" text-anchor="start" style="white-space: pre;" direction="ltr">MSSQL</text></g><g stroke-linecap="round"><g transform="translate(327.3920227791268 165.23424735534297) rotate(0 80.82385441316268 0.957737023680977)"><path d="M-0.44 0.48 C26.38 0.64, 134.84 0.5, 162.09 0.67 M1.53 -0.32 C28.05 0.08, 134.06 2.23, 160.89 2.23" stroke="#000000" stroke-width="1" fill="none"></path></g><g transform="translate(327.3920227791268 165.23424735534297) rotate(0 80.82385441316268 0.957737023680977)"><path d="M133.38 11.38 C143.95 9.06, 156.67 4.74, 161.15 0.98 M132.59 12.54 C142.05 9.49, 151.32 4.73, 160.55 1.4" stroke="#000000" stroke-width="1" fill="none"></path></g><g transform="translate(327.3920227791268 165.23424735534297) rotate(0 80.82385441316268 0.957737023680977)"><path d="M133.61 -9.14 C144.04 -3.29, 156.66 0.57, 161.15 0.98 M132.82 -7.98 C142.32 -4.03, 151.51 -1.8, 160.55 1.4" stroke="#000000" stroke-width="1" fill="none"></path></g></g><g stroke-linecap="round" transform="translate(505.6513671875 66.56964111328125) rotate(0 112.40966796875 106.0841064453125)"><path d="M-0.68 0.06 C62.36 0.53, 123.78 -0.54, 223.75 0.7 M0.32 -0.11 C80.82 -0.45, 159.66 -0.3, 224.11 -0.07 M223.46 1.05 C227.39 59.07, 226.74 116.98, 224.09 213.73 M225.64 0.68 C225.61 54.81, 225.34 108.14, 225.61 211.6 M223.97 213.03 C164.71 215.17, 100.87 212.1, 1.43 213.37 M225.39 211.53 C145.65 213.44, 67.52 211.91, 0.53 212.09 M-0.03 211.16 C1.26 150.13, -0.6 84.19, 1.18 0.7 M0.1 212.13 C-0.47 128.3, -0.82 44.13, 0.1 -0.54" stroke="#000000" stroke-width="1" fill="none"></path></g><g transform="translate(528.2584228515625 86.79840087890625) rotate(0 29 12.5)"><text x="0" y="18" font-family="Virgil, Segoe UI Emoji" font-size="20px" fill="#000000" text-anchor="start" style="white-space: pre;" direction="ltr">Posts</text></g><g transform="translate(522.5069580078125 139.4241943359375) rotate(0 94.5 50)"><text x="0" y="18" font-family="Virgil, Segoe UI Emoji" font-size="20px" fill="#000000" text-anchor="start" style="white-space: pre;" direction="ltr">- title: string</text><text x="0" y="43" font-family="Virgil, Segoe UI Emoji" font-size="20px" fill="#000000" text-anchor="start" style="white-space: pre;" direction="ltr">- legacy_id: int64</text><text x="0" y="68" font-family="Virgil, Segoe UI Emoji" font-size="20px" fill="#000000" text-anchor="start" style="white-space: pre;" direction="ltr">- meta: embedded</text><text x="0" y="93" font-family="Virgil, Segoe UI Emoji" font-size="20px" fill="#000000" text-anchor="start" style="white-space: pre;" direction="ltr">- categories: array</text></g><g transform="translate(554.6676025390625 17.679962158203125) rotate(0 64.5 12.5)"><text x="0" y="18" font-family="Virgil, Segoe UI Emoji" font-size="20px" fill="#000000" text-anchor="start" style="white-space: pre;" direction="ltr">DATASTORE</text></g><g stroke-linecap="round" transform="translate(157.67950439453125 79.84419250488281) rotate(0 61.5 25)"><path d="M-0.91 -0.93 C38.05 -0.05, 73.93 -0.95, 121.81 -1.06 M-0.62 0.67 C26.36 -1.59, 51.64 -0.78, 122.36 -0.9 M122.16 0.54 C124.9 19.82, 124.27 37.8, 124.66 49.13 M123.55 0.93 C122.27 15.03, 122.57 28.56, 123.85 49.3 M123.98 48.1 C89.49 50.57, 60.13 49.04, -1.36 51.83 M122.08 50.26 C75.84 49.77, 29.21 51.12, 0.16 50.21 M-0.7 50.25 C1.32 30.75, -0.02 14.27, -0.67 -0.56 M0.25 50.94 C-0.69 38.96, 0.07 29.2, -0.14 0.71" stroke="#000000" stroke-width="1" fill="none"></path></g><g transform="translate(162.67950439453125 92.34419250488281) rotate(0 56.5 12.5)"><text x="56.5" y="18" font-family="Virgil, Segoe UI Emoji" font-size="20px" fill="#000000" text-anchor="middle" style="white-space: pre;" direction="ltr">post_meta</text></g></svg>